<?xml version="1.0" encoding="utf-8"?>
<!-- Generator: Adobe Illustrator 19.2.1, SVG Export Plug-In . SVG Version: 6.00 Build 0)  -->
<svg version="1.1" id="layer" xmlns="http://www.w3.org/2000/svg" xmlns:xlink="http://www.w3.org/1999/xlink" x="0px" y="0px"
	 viewBox="0 0 652 652" style="enable-background:new 0 0 652 652;" xml:space="preserve">
<g>
	<path d="M44.1,358.3c12.7,0,21.9-8.7,21.9-21c0-10.4-5.7-14.6-13.4-18.3c-4.2-2.1-8.9-3.2-13.6-6c-5.9-3.4-8.5-6.8-8.5-13
		c0-7.9,6.8-10.4,9.6-10.4c12.5,0,17,8.9,20.8,20.2h2.3l-0.6-23.1h-3.4l-3,4.5c-3.4-2.6-9.5-4.9-14.2-4.9
		c-11.2,0-19.7,7.9-19.7,18.7c0,8.9,4.2,14.6,11.2,17.8c5.3,2.5,9.1,3.8,14.2,6c6.2,2.6,9.3,7.4,9.3,13.4c0,7.6-4.2,12.7-12.7,12.7
		c-11.7,0-17.8-10.2-21.7-21h-2.3l0.6,23.6h3.4l3.2-4.7C30.8,355.6,36.3,358.3,44.1,358.3L44.1,358.3z M88.3,358.1
		c7.4,0,13.8-5.3,17.4-12.1l-2.1-1.3c-3,5.9-6.8,9.1-13,9.1c-7.9,0-12.3-8.5-12.3-20.8c0-15.3,5.3-20.6,10.8-20.6
		c3.2,0,4.5,0.8,5.1,3.6c0,1.9-1.1,2.1-1.1,6.2c0,4,3.6,5.1,5.5,5.1c3.2,0,5.1-2.3,5.1-5.7c0-6.2-4.9-11.7-14.4-11.7
		c-12.9,0-20.8,11.5-20.8,24C68.3,347.9,74.9,358.1,88.3,358.1L88.3,358.1z M116.9,295.9c3.6,0,6.2-3,6.2-6.6c0-3.2-2.5-6-6.2-6
		c-3.4,0-6.1,3-6.1,6.4S113.5,295.9,116.9,295.9z M106.5,356.9H129v-2.1c-1.1-0.2-2.6-0.6-4.2-1.1c-1.7-0.8-2.5-2.5-2.5-4.7v-37.8
		l-0.6-0.8l-16.6,1.1v1.9c1.7,0.2,4.5,1.1,5.5,1.9c1.5,1.1,2.3,3,2.5,5.1v29.1c0,2.1-0.8,4-2.5,4.5c-1.1,0.4-2.5,0.6-4.2,0.8V356.9
		L106.5,356.9z M147.9,358.1c7.8,0,14-5.1,17.4-12.3l-1.9-1.1c-3.4,6.2-6.1,9.1-12.9,9.1c-9.5,0-13.4-9.3-13.4-22.3v-1.1h27.4v-0.9
		c0-10.4-4.7-19.5-17.6-19.5c-12.5,0-19.7,11.7-19.7,23.8C127.3,346.9,133.9,358.1,147.9,358.1L147.9,358.1z M137.1,328
		c0.2-9.4,4.2-15.9,9.6-15.9c6.4,0,7.9,8.3,7.9,15.5L137.1,328L137.1,328z"/>
	<path d="M164.5,356.9h22.3v-2.1c-1.3-0.2-3-0.6-4.2-1.1c-1.5-0.8-2.3-2.3-2.3-4.5v-27.6c0.9-2.3,4.5-6.6,10.8-6.6
		c3.8,0,7.4,3.8,7.4,10.8v24c0,2.3-0.8,4-2.5,4.5c-1.1,0.4-2.6,0.6-4.2,0.8v2.1h22.3v-2.1c-1.7-0.2-3-0.6-4.2-1.1
		c-1.7-0.8-2.3-2.3-2.3-4.5V326c0-9.6-4-16.1-12.5-16.1c-7.8,0-11.2,4.5-14.7,8.3h-0.4v-6.8l-0.8-0.8l-15.5,1.1v1.9
		c1.7,0.2,3.6,0.8,4.7,1.7c1.5,1.1,2.3,3.2,2.5,5.3v29.1c0,2.3-0.8,4-2.5,4.5c-1.1,0.4-2.5,0.6-4.2,0.8L164.5,356.9L164.5,356.9z
		 M231.7,358.1c7.4,0,13.8-5.3,17.4-12.1l-2.1-1.3c-3,5.9-6.8,9.1-13,9.1c-7.9,0-12.3-8.5-12.3-20.8c0-15.3,5.3-20.6,10.8-20.6
		c3.2,0,4.5,0.8,5.1,3.6c0,1.9-1.1,2.1-1.1,6.2c0,4,3.6,5.1,5.5,5.1c3.2,0,5.1-2.3,5.1-5.7c0-6.2-4.9-11.7-14.4-11.7
		c-12.9,0-20.8,11.5-20.8,24C211.6,347.9,218.2,358.1,231.7,358.1L231.7,358.1z M270,358.1c7.8,0,14-5.1,17.4-12.3l-1.9-1.1
		c-3.4,6.2-6.1,9.1-12.9,9.1c-9.5,0-13.4-9.3-13.4-22.3v-1.1h27.4v-0.9c0-10.4-4.7-19.5-17.6-19.5c-12.5,0-19.7,11.7-19.7,23.8
		C249.4,346.9,256,358.1,270,358.1L270,358.1z M259.3,328c0.2-9.4,4.2-15.9,9.6-15.9c6.4,0,7.9,8.3,7.9,15.5L259.3,328L259.3,328z
		 M289.5,356.9h23.6v-2.1c-3-0.2-9.6-1.7-9.6-4.9c0-1.3,0.4-3.2,0.9-5.1c0.8-2.8,1.7-5.9,3.4-10.2h20.2l5.1,14.7
		c0.2,0.8,0.4,1.5,0.4,2.1c0,2.3-5.5,3.4-8.3,3.6v2.1h27v-2.1c-1.5,0-4.3-0.8-5.7-1.7c-2.1-1.3-2.6-2.6-3.4-4.5
		c-3.2-8.7-11.2-32.1-19.9-56.1h-4c-6.2,17.8-13.2,37.4-19.3,53.3c-1.3,3.2-2.8,5.9-4.9,7.2c-1.5,0.9-4.3,1.7-6.1,1.7v2.1
		L289.5,356.9L289.5,356.9z M308.8,331.4l9.1-25.5l9.1,25.5H308.8z M366.9,358.1c5.3,0,9.3-3.6,11.2-5.7h0.4v4l0.6,0.6l14.9-0.9
		v-1.7c-1.5,0-4.2-0.4-5.1-1.1c-1.3-0.9-1.9-2.6-2.1-4.5v-60.3l-0.6-0.6l-17.2,0.9v1.7c2.3,0.2,5.9,0.9,7.4,2.1
		c1.3,0.9,2.1,3.4,2.3,5.3v18.3c-0.9-0.4-4.9-2.5-10-2.5c-9.8,0-18.7,8.9-18.7,21.5C349.5,349.4,357.2,358.1,366.9,358.1
		L366.9,358.1z M370.1,354.1c-8.1,0-11.2-8.5-11.2-17.8c0-12.7,4.3-20.4,10.4-20.4c5.5,0,8.1,4.5,9.1,7.7V350
		C376.1,352.4,373.9,354.1,370.1,354.1L370.1,354.1z M410.5,357.5h3.2c1.1-4.2,2.3-7,3.4-10c3.6-9.8,6.4-17.2,10-25.5
		c1.1-2.8,4.9-4.9,6.4-5.1v-1.7h-15.9v1.9c1.3,0.2,6.4,1.5,6.4,3.4c0,0.8-0.2,1.9-0.4,2.6c-3,8.9-5.3,15.3-8.3,23.2
		c-3.6-9.4-7.8-20.4-9.3-24.9c-0.4-1.1-0.6-1.9-0.6-1.9c0-1.5,3-1.9,4.9-1.9v-2.1h-19.7v1.9c2.5,0.4,5.3,1.9,6.4,4.5
		C402.8,336.5,404.7,341.1,410.5,357.5L410.5,357.5z M442.3,358.1c4.9,0,9.5-2.5,12.5-6.4h0.2c1.3,4.3,3.8,6.2,7.8,6.2
		c5.3,0,8.7-3.4,9.3-11.9h-2.1c-0.2,3.6-0.6,7.2-3,7.2s-4-3-4-4.7c0-3,0.4-12.7,0.4-20.8c0-12.3-6.4-13.8-14.9-13.8
		c-6.6,0-14,4.3-14,9.8c0,2.6,1.1,4.9,4,4.9c3,0,5.5-1.7,5.5-4.2c0-2.1-0.8-4.2-0.8-5.5c0.8-0.9,1.9-3.2,4.7-3.2c6.8,0,7,7.7,7,9.4
		v5.1c-3.6,2.3-9.3,3.8-14.2,5.9c-4.2,1.7-8.1,4.3-8.1,11.9C432.5,354.1,436.4,358.1,442.3,358.1L442.3,358.1z M446.8,353.7
		c-3.4,0-5.5-2.5-5.5-7c0-8.3,5.5-10.8,13.6-13.8l-0.4,16.3C452.5,352,451.2,353.7,446.8,353.7z"/>
	<path d="M471.8,356.9h20.4v-1.9c-1.3,0-2.8-0.4-4-1.1c-1.3-0.8-2.1-2.1-2.1-4.2v-25.3c0.8-2.1,4.2-6,10-6c3.6,0,6.6,3.4,6.6,9.8
		v21.9c0,2.1-0.6,3.6-2.3,4.2c-0.9,0.4-2.5,0.6-4,0.6v1.9h20.6v-1.9c-1.5,0-2.6-0.4-4-0.9c-1.5-0.8-2.1-2.1-2.1-4.2v-21.4
		c0-8.9-3.6-14.7-11.3-14.7c-7.2,0-10.2,4.2-13.6,7.6V315l-0.6-0.6l-14.4,0.9v1.7c1.5,0,3.4,0.8,4.3,1.5c1.3,0.9,2.1,3,2.3,4.9v26.6
		c0,2.1-0.8,3.6-2.3,4.2c-1.1,0.4-2.3,0.6-3.8,0.6L471.8,356.9L471.8,356.9z M538,358.1c6.8,0,12.7-4.9,15.9-11l-1.9-1.3
		c-2.6,5.3-6.2,8.3-11.9,8.3c-7.2,0-11.3-7.7-11.3-19.1c0-14,4.9-18.9,9.8-18.9c2.8,0,4.2,0.6,4.7,3.4c0,1.7-1.1,1.9-1.1,5.7
		c0,3.6,3.4,4.7,4.9,4.7c3,0,4.7-2.1,4.7-5.1c0-5.7-4.5-10.8-13.2-10.8c-11.7,0-19.1,10.6-19.1,21.9
		C519.6,348.6,525.7,358.1,538,358.1L538,358.1z M573.2,358.1c7.2,0,12.9-4.7,15.9-11.2l-1.7-1.1c-3.2,5.7-5.5,8.3-11.7,8.3
		c-8.7,0-12.3-8.5-12.3-20.4v-0.9h25V332c0-9.4-4.3-17.8-16.1-17.8c-11.3,0-18.2,10.6-18.2,21.7
		C554.2,347.9,560.3,358.1,573.2,358.1L573.2,358.1z M563.3,330.5c0.2-8.7,4-14.6,8.9-14.6c5.9,0,7.2,7.6,7.2,14.4L563.3,330.5z
		 M605.5,358.3c7.9,0,14.7-4.9,14.7-13.2c0-7.6-4.9-11.2-11.7-13.8c-6.6-2.5-9.5-3.8-9.5-8.7c0-3.2,2.1-6.6,6.6-6.6
		c5.7,0,10,5.3,10.8,10.6h1.9l-0.6-12.9h-2.6l-0.6,2.5c-2.1-1.5-5.5-2.5-8.9-2.5c-7.8,0-13.2,5.5-13.2,12.3
		c0,7.9,6.4,11.3,11.7,13.2c6.1,2.1,9.6,4.2,9.6,8.7c0,4.5-2.3,7.9-7.8,7.9c-6.6,0-11.7-8.5-12.7-13h-1.9l0.4,14.4h2.8l0.8-2.8
		C596.8,356,601.5,358.3,605.5,358.3L605.5,358.3z"/>
</g>
</svg>
